<svg width="170" height="57" viewBox="0 0 170 57" fill="none" xmlns="http://www.w3.org/2000/svg">
<g filter="url(#filter0_d)">
<path d="M31.8235 6.97754H12.6695C7.57239 6.97754 5 9.44805 5 14.3415V40.5312C5 41.1726 5.34504 41.5676 6.08843 41.5676H11.8784C12.5713 41.5676 13.0173 41.1726 13.0173 40.5312V39.5368C13.0173 37.1111 14.0412 35.789 16.5856 35.5341H31.8235C37.4143 35.5341 39.939 33.114 39.939 27.8257V14.686C39.939 9.39764 37.4143 6.97754 31.8235 6.97754ZM31.9301 25.6016C31.9301 28.4699 31.2793 29.0609 27.8625 29.0609H19.747C16.3331 29.0609 14.1534 30.1981 13.0145 32.4222V16.2686C13.0145 14.0446 13.5587 13.4507 16.2798 13.4507H27.8625C31.2793 13.4507 31.9301 14.0446 31.9301 16.91V25.6016Z" fill="white"/>
<path d="M58.2992 21.4561C53.895 21.4561 52.0127 23.6801 52.0127 27.4363V40.6292C52.0127 41.223 51.7154 41.5675 51.0225 41.5675H45.7767C45.0838 41.5675 44.7388 41.223 44.7388 40.6292V16.5151C44.7388 15.9212 45.0838 15.5739 45.7767 15.5739H50.1809C50.8261 15.5739 51.1711 15.9212 51.1711 16.5151V20.4057C52.0127 17.1957 54.4392 15.5627 58.7452 15.5627H60.5266C61.1689 15.5627 61.514 15.91 61.514 16.5039V20.5177C61.514 21.1592 61.1689 21.4561 60.5266 21.4561H58.2992Z" fill="white"/>
<path d="M92.4444 34.5005C92.4444 39.394 90.2675 41.5676 85.0722 41.5676H72.2047C67.0571 41.5676 64.8298 39.394 64.8298 34.5005V22.6465C64.8298 17.7559 67.0571 15.5795 72.2047 15.5795H85.0722C90.2675 15.5795 92.4444 17.7559 92.4444 22.6465V34.5005ZM85.1704 24.5204C85.1704 21.9491 84.6767 21.4561 81.6078 21.4561H75.7168C72.6002 21.4561 72.1037 21.9491 72.1037 24.5204V32.6238C72.1037 35.1924 72.6002 35.6882 75.7168 35.6882H81.6078C84.6767 35.6882 85.1704 35.1924 85.1704 32.6238V24.5204Z" fill="white"/>
<path d="M99.7688 21.4561H97.2918C96.6466 21.4561 96.3015 21.1592 96.3015 20.5178V16.5151C96.3015 15.9212 96.6466 15.5739 97.2918 15.5739H99.766V12.3639C99.7688 7.47052 102.341 5 107.438 5H113.526C114.218 5 114.516 5.34733 114.516 5.93835V9.94103C114.516 10.5853 114.218 10.8794 113.526 10.8794H110.311C107.587 10.8794 107.043 11.4732 107.043 13.6972V15.5739H113.526C114.218 15.5739 114.516 15.9212 114.516 16.5151V20.5178C114.516 21.1592 114.218 21.4561 113.526 21.4561H107.043V40.6292C107.043 41.223 106.698 41.5676 106.005 41.5676H100.759C100.066 41.5676 99.7688 41.223 99.7688 40.6292V21.4561Z" fill="white"/>
<path d="M119.961 21.4561H117.489C116.847 21.4561 116.502 21.1592 116.502 20.5178V16.5151C116.502 15.9212 116.847 15.5739 117.489 15.5739H119.966V12.3639C119.961 7.47052 122.539 5 127.63 5H133.718C134.41 5 134.708 5.34733 134.708 5.93835V9.94103C134.708 10.5853 134.41 10.8794 133.718 10.8794H130.5C127.779 10.8794 127.235 11.4732 127.235 13.6972V15.5739H133.718C134.41 15.5739 134.708 15.9212 134.708 16.5151V20.5178C134.708 21.1592 134.41 21.4561 133.718 21.4561H127.235V40.6292C127.235 41.223 126.887 41.5676 126.194 41.5676H120.948C120.255 41.5676 119.961 41.223 119.961 40.6292V21.4561Z" fill="white"/>
<path d="M156.827 51.6485H146.038C141.191 51.6485 139.112 49.7718 139.112 45.1249V44.6319C139.098 44.4993 139.113 44.3651 139.158 44.2394C139.203 44.1137 139.275 43.9996 139.37 43.9057C139.465 43.8118 139.58 43.7404 139.706 43.6969C139.832 43.6534 139.967 43.6388 140.099 43.6543H145.149C145.842 43.6543 146.187 44.0016 146.187 44.6431V44.8896C146.187 45.8783 146.734 46.2733 147.822 46.2733H154.058C157.026 46.2733 157.77 45.5338 157.77 43.0129V35.2176C156.631 37.4416 154.454 38.5788 151.037 38.5788H145.988C140.84 38.5788 138.562 36.4052 138.562 31.5118V16.5151C138.555 16.3856 138.577 16.2561 138.625 16.1357C138.673 16.0152 138.747 15.9066 138.841 15.8172C138.935 15.7278 139.047 15.6597 139.17 15.6178C139.293 15.5758 139.423 15.5608 139.552 15.5739H144.849C145.491 15.5739 145.839 15.9212 145.839 16.5151V29.6491C145.839 32.2177 146.383 32.7135 149.452 32.7135H153.214C156.479 32.7135 157.767 31.3774 157.767 28.6604V16.5151C157.767 15.9212 158.112 15.5739 158.757 15.5739H164.056C164.183 15.5617 164.311 15.5777 164.43 15.6207C164.55 15.6637 164.659 15.7327 164.749 15.8227C164.839 15.9127 164.907 16.0215 164.95 16.1412C164.993 16.2609 165.008 16.3886 164.996 16.5151V43.7916C164.993 48.9763 162.221 51.6485 156.827 51.6485Z" fill="white"/>
</g>
<defs>
<filter id="filter0_d" x="0" y="0" width="170" height="56.6485" filterUnits="userSpaceOnUse" color-interpolation-filters="sRGB">
<feFlood flood-opacity="0" result="BackgroundImageFix"/>
<feColorMatrix in="SourceAlpha" type="matrix" values="0 0 0 0 0 0 0 0 0 0 0 0 0 0 0 0 0 0 127 0"/>
<feOffset/>
<feGaussianBlur stdDeviation="2.5"/>
<feColorMatrix type="matrix" values="0 0 0 0 0 0 0 0 0 0 0 0 0 0 0 0 0 0 0.25 0"/>
<feBlend mode="normal" in2="BackgroundImageFix" result="effect1_dropShadow"/>
<feBlend mode="normal" in="SourceGraphic" in2="effect1_dropShadow" result="shape"/>
</filter>
</defs>
</svg>
